<svg width="512" height="512" viewBox="0 0 512 512" fill="none" xmlns="http://www.w3.org/2000/svg">
<path fill-rule="evenodd" clip-rule="evenodd" d="M0 0H512V512H0V0Z" fill="#52AD2A"/>
<path fill-rule="evenodd" clip-rule="evenodd" d="M255.723 214.277C247.172 214.276 238.619 214.206 230.069 214.296C219.223 214.408 211.219 221.764 209.647 232.569C206.84 251.857 199.218 269.029 186.636 283.969C140.436 338.823 170.049 421.174 240.518 433.831C290.119 442.738 338.813 408.33 346.381 358.707C350.648 330.737 343.611 305.721 325.317 283.983C312.636 268.916 304.918 251.626 302.284 232.095C300.934 222.076 292.591 214.481 282.384 214.31C273.499 214.16 264.61 214.277 255.723 214.277ZM262.403 222.827C262.597 222.812 262.802 222.803 263.02 222.812L263.587 222.827H270.883V222.855C274.633 222.827 278.382 222.781 282.123 222.94C289.048 223.235 293.2 227.197 294.113 234.136C296.891 255.257 305.626 273.64 319.198 289.922C335.916 309.977 342.044 332.981 337.549 358.686C329.645 403.878 285.197 434.319 240.291 425.423C178.106 413.105 151.753 338.957 192.364 290.368C206.075 273.96 214.988 255.493 217.826 234.203C218.775 227.084 222.947 223.193 230.25 222.921C232.739 222.827 235.232 222.815 237.725 222.824H237.804H248.307L248.852 222.815C249.139 222.81 249.407 222.812 249.655 222.824L262.403 222.827Z" fill="white" stroke="white" stroke-width="0.288"/>
<path fill-rule="evenodd" clip-rule="evenodd" d="M256.045 199.471C245.159 199.471 234.274 199.49 223.388 199.457C220.457 199.448 218.093 200.292 217.014 203.258C216.265 205.315 217.456 206.794 218.77 208.128C219.924 209.299 221.454 209.277 222.987 209.275C244.925 209.257 266.863 209.228 288.801 209.299C292.375 209.308 295.005 207.912 295.005 204.366C295.005 200.729 292.128 199.459 288.701 199.465C277.816 199.483 266.93 199.471 256.045 199.471Z" fill="white" stroke="white" stroke-width="0.288"/>
<path fill-rule="evenodd" clip-rule="evenodd" d="M255.719 184.082C245.826 184.082 235.933 184.124 226.041 184.058C222.666 184.035 219.867 184.683 219.738 188.731C219.609 192.842 222.546 193.719 225.804 193.727C245.924 193.777 266.045 193.775 286.165 193.73C289.45 193.721 292.342 192.791 292.216 188.709C292.091 184.648 289.261 184.038 285.899 184.059C275.839 184.122 265.779 184.082 255.719 184.082Z" fill="white" stroke="white" stroke-width="0.288"/>
<path fill-rule="evenodd" clip-rule="evenodd" d="M256.503 178.049C265.544 178.049 274.586 178.059 283.627 178.035C285.237 178.031 287.4 178.542 287.903 176.488C288.364 174.599 286.384 173.705 285.021 172.841C278.913 168.972 271.906 167.834 264.972 167.257C254.301 166.367 243.581 166.54 233.245 170.023C230.896 170.815 228.593 171.875 226.46 173.136C225.282 173.831 223.525 174.775 224.035 176.54C224.551 178.326 226.383 178.045 227.872 178.045C237.416 178.047 246.959 178.047 256.503 178.049Z" fill="white" stroke="white" stroke-width="0.288"/>
<path fill-rule="evenodd" clip-rule="evenodd" d="M258.726 297.429C277.264 298.823 291.872 314.305 291.872 333.2C291.872 353.012 275.811 369.073 255.999 369.073C236.187 369.073 220.127 353.012 220.127 333.2C220.127 314.305 234.735 298.823 253.273 297.429V222.829H258.726V297.429ZM255.999 302.779C272.8 302.779 286.419 316.398 286.419 333.2C286.419 350.001 272.8 363.62 255.999 363.62C239.198 363.62 225.578 350.001 225.578 333.2C225.578 316.398 239.198 302.779 255.999 302.779Z" fill="white" stroke="white" stroke-width="0.288"/>
<path fill-rule="evenodd" clip-rule="evenodd" d="M252.564 143.793H259.434V174.021H252.564V143.793Z" fill="white" stroke="white" stroke-width="0.288"/>
<path fill-rule="evenodd" clip-rule="evenodd" d="M260.353 128.46C269.827 107.174 284.588 91.3461 306.495 83.0694C329.195 74.4934 352.451 75.8111 375.793 80.2435C380.429 81.1245 377.936 83.7415 377.267 85.4473C366.777 112.232 350.282 133.847 323.544 146.202C302.706 155.832 280.702 157.427 258.665 152.383C256.747 151.944 254.722 151.375 252.672 150.664L260.353 128.46Z" fill="white" stroke="white" stroke-width="0.288"/>
<path fill-rule="evenodd" clip-rule="evenodd" d="M251.646 128.46C242.171 107.174 227.41 91.3461 205.503 83.0694C182.803 74.4934 159.548 75.8111 136.205 80.2435C131.569 81.1245 134.062 83.7415 134.731 85.4473C145.221 112.232 161.717 133.847 188.454 146.202C209.292 155.832 231.296 157.427 253.333 152.383C255.251 151.944 257.276 151.375 259.327 150.664L251.646 128.46Z" fill="white" stroke="white" stroke-width="0.288"/>
</svg>
