<svg width="512" height="512" viewBox="0 0 512 512" fill="none" xmlns="http://www.w3.org/2000/svg">
<g clip-path="url(#clip0_63_92)">
<path fill-rule="evenodd" clip-rule="evenodd" d="M265.992 0.544134C241.207 3.07558 216.726 7.30085 193.491 16.9326C166.246 28.2278 141.747 43.8969 120.566 64.4215C98.7364 85.5738 81.7214 110.179 69.6195 138.137C59.5061 161.502 53.7047 185.874 51.8263 211.248C48.7996 252.133 56.5951 290.986 73.1136 328.326C76.0951 335.064 79.1961 342.208 83.071 347.923C90.9495 359.54 99.3802 371.045 109.26 381.307C122.356 394.908 136.983 406.502 153.104 416.209C169.035 425.8 186.033 433.016 204.13 437.382C209.823 438.756 214.461 435.009 218.933 432.35C226.299 427.963 233.024 422.494 240.409 418.143C254.58 409.794 270.329 409.084 286.238 409.755C305.592 410.573 324.561 414.797 343.831 416.314C360.015 417.591 375.981 417.212 390.937 409.469C394.48 407.634 398.518 407.324 401.969 410.194C405.174 412.859 404.218 416.256 403.396 419.624C399.715 434.69 390.158 444.196 375.606 448.897C355.203 455.489 334.535 453.717 313.838 450.694C309.343 450.037 304.846 449.373 300.332 448.871C296.356 448.433 293.174 450.146 291.533 453.671C289.863 457.261 292.386 459.895 294.741 462.155C298.841 466.089 304.042 467.862 309.429 469.315C324.212 473.3 339.51 473.107 353.91 470C374.856 465.479 394.141 455.97 411.937 443.58C430.921 430.365 447.774 414.582 465.826 400.258C473.051 394.523 480.099 388.363 489.556 386.353C491.338 385.974 493.093 385.833 494.872 386.124C501.845 387.268 504.458 390.981 502.64 397.795C500.645 405.278 496.558 411.786 492.077 417.979C471.318 446.685 444.458 468.229 413.267 484.59C379.704 502.196 344.044 511.319 306.039 511.974C271.681 512.566 238.525 506.789 206.262 495.401C180.504 486.31 155.7 475.01 131.975 461.493C118.937 454.064 107.272 444.71 95.7746 434.962C78.8098 420.578 64.2403 404.173 51.7737 386.041C36.8166 364.288 25.9312 340.416 18.7888 314.866C11.5535 288.984 8.31076 262.664 9.5415 235.866C11.4433 194.401 22.936 155.709 44.1478 119.975C61.8573 90.1421 84.8867 65.0858 113.224 45.1809C153.417 16.9493 198.04 1.39848 247.391 0.0872531C253.569 -0.0761858 259.725 -0.0545231 265.992 0.544134Z" fill="#52AD2A"/>
<path fill-rule="evenodd" clip-rule="evenodd" d="M437.491 215.398C439.813 214.409 441.451 210.578 443.922 211.943C446.385 213.304 444.452 216.763 444.364 219.233C443.661 239.158 440.689 258.817 433.364 277.354C426.156 295.594 415.109 311.179 399.286 323.64C379.012 339.605 355.967 345.565 330.935 346.461C324.748 346.682 318.6 346.298 312.437 345.98C310.229 345.865 309.074 345.19 309.72 342.732C316.816 315.764 330.111 292.985 354.011 277.447C364.861 270.394 376.53 265.014 389.8 261.318C376.813 262.626 365.412 266.226 354.407 271.383C331.018 282.344 314.859 300.166 304.207 323.381C295.306 342.78 296.075 363.376 296.687 383.938C296.817 388.309 297.451 392.675 298.008 397.022C298.337 399.582 297.574 400.598 294.877 400.338C285.481 399.428 276.066 399.29 266.653 400.092C264.302 400.293 263.443 399.405 263.754 397.019C266.829 373.336 261.115 350.912 252.502 329.34C239.693 297.256 215.226 279.234 181.226 273.943C180.424 273.818 179.611 273.75 178.816 273.592C178.542 273.543 178.302 273.306 177.853 273.037C192.297 277.304 205.697 283.158 217.094 292.914C232.53 306.13 241.768 323.077 246.863 342.525C247.544 345.131 246.415 345.588 244.225 345.742C221.447 347.34 199.483 344.908 179.337 333.034C159.789 321.513 147.634 304.122 140.145 283.215C134.626 267.806 132.403 251.729 131.901 235.409C131.858 234.018 131.178 232.102 132.589 231.338C133.992 230.576 135.128 232.276 136.339 232.985C146.807 239.118 158.396 241.334 170.245 242.172C182.876 243.064 195.521 243.703 207.891 246.646C245.035 255.484 272.287 282.825 272.452 323.546C272.524 341.188 274.265 358.507 280.402 375.186C280.735 376.089 280.749 377.136 281.855 377.67C277.7 351.881 276.313 325.956 281.53 300.346C286.065 278.088 298.568 260.265 317.127 246.939C342.276 228.885 381.593 226.487 412.029 223.431C412.898 223.313 413.769 223.194 414.634 223.075C417.112 223.243 419.408 222.492 421.687 221.655C422.631 221.463 423.575 221.27 424.515 221.076C429.352 220.361 433.636 218.369 437.491 215.398Z" fill="#52AD2A"/>
<path fill-rule="evenodd" clip-rule="evenodd" d="M282.887 257.627C284.979 216.683 281.839 177.491 272.139 138.909C262.258 177.572 261.016 216.927 261.978 257.77C254.391 251.499 248.173 245.678 243 238.917C231.43 223.794 224.841 206.614 221.786 187.812C219.095 171.249 220.287 154.939 225.016 139.167C229.11 125.511 236.274 113.096 245.247 101.785C252.231 92.9787 260.588 85.6933 268.974 78.3665C271.337 76.3018 273.222 76.2021 275.751 78.255C298.374 96.6189 315.651 118.751 322.02 147.668C326.519 168.086 324.9 188.448 317.765 208.372C313.489 220.309 307.947 231.392 299.873 241.143C295.047 246.969 289.589 252.184 282.887 257.627Z" fill="#52AD2A"/>
</g>
<defs>
<clipPath id="clip0_63_92">
<rect width="512" height="512" fill="white"/>
</clipPath>
</defs>
</svg>
